<svg width="900" height="200" xmlns="http://www.w3.org/2000/svg">
  <defs>
    <linearGradient id="bg" x1="0%" y1="0%" x2="100%" y2="100%">
      <stop offset="0%" style="stop-color:#0d1117"/>
      <stop offset="50%" style="stop-color:#0f2744"/>
      <stop offset="100%" style="stop-color:#0d1117"/>
    </linearGradient>
    <linearGradient id="line" x1="0%" y1="0%" x2="100%" y2="0%">
      <stop offset="0%" style="stop-color:#0d1117"/>
      <stop offset="50%" style="stop-color:#58a6ff"/>
      <stop offset="100%" style="stop-color:#0d1117"/>
    </linearGradient>
  </defs>
  <rect width="900" height="200" fill="url(#bg)" rx="12"/>
  <line x1="0" y1="40" x2="900" y2="40" stroke="#1e3a5f" stroke-width="0.5"/>
  <line x1="0" y1="80" x2="900" y2="80" stroke="#1e3a5f" stroke-width="0.5"/>
  <line x1="0" y1="120" x2="900" y2="120" stroke="#1e3a5f" stroke-width="0.5"/>
  <line x1="0" y1="160" x2="900" y2="160" stroke="#1e3a5f" stroke-width="0.5"/>
  <line x1="150" y1="0" x2="150" y2="200" stroke="#1e3a5f" stroke-width="0.5"/>
  <line x1="300" y1="0" x2="300" y2="200" stroke="#1e3a5f" stroke-width="0.5"/>
  <line x1="450" y1="0" x2="450" y2="200" stroke="#1e3a5f" stroke-width="0.5"/>
  <line x1="600" y1="0" x2="600" y2="200" stroke="#1e3a5f" stroke-width="0.5"/>
  <line x1="750" y1="0" x2="750" y2="200" stroke="#1e3a5f" stroke-width="0.5"/>
  <circle cx="120" cy="100" r="60" fill="#58a6ff" opacity="0.06"/>
  <circle cx="780" cy="100" r="60" fill="#58a6ff" opacity="0.06"/>
  <rect x="0" y="193" width="900" height="3" fill="url(#line)" rx="2"/>
  <circle cx="60" cy="40" r="2" fill="#58a6ff" opacity="0.5"/>
  <circle cx="840" cy="160" r="2" fill="#58a6ff" opacity="0.5"/>
  <circle cx="450" cy="20" r="1.5" fill="#58a6ff" opacity="0.4"/>
  <text x="450" y="95" font-family="monospace" font-size="42" font-weight="bold"
    fill="#58a6ff" text-anchor="middle" letter-spacing="3">
    Pranshu Mishra
  </text>
  <text x="450" y="130" font-family="monospace" font-size="15"
    fill="#8b949e" text-anchor="middle" letter-spacing="2">
    AI / ML Developer  •  Python  •  Flask  •  LLM Systems
  </text>
  <text x="450" y="162" font-family="monospace" font-size="11"
    fill="#3d6a9e" text-anchor="middle" letter-spacing="1">
    &gt; Building systems that think...
  </text>
</svg>
